<svg fill="#000000" xmlns="http://www.w3.org/2000/svg" viewBox="0 0 64 64" width="48px" height="48px"><path d="M 33.830078 3 C 32.710078 3 30.620703 3.55 29.220703 7.25 C 28.460703 9.26 27.919531 11.030078 27.519531 12.330078 C 27.159531 13.510078 26.789844 14.730156 26.589844 14.910156 C 26.509844 14.860156 26.399766 14.64 26.259766 14.25 C 25.449766 11.87 24.329844 8.3192188 23.839844 6.1992188 C 23.839844 6.1592187 23.820547 6.1200781 23.810547 6.0800781 C 23.300547 4.6700781 21.900781 3.1503906 20.050781 3.1503906 C 19.020781 3.1503906 17.480234 3.6507812 15.990234 6.0507812 C 14.110234 9.0807812 13.609219 11.800469 13.199219 13.980469 C 12.829219 16.000469 12.570391 17.170391 11.650391 17.650391 C 10.440391 18.290391 6.4192187 20.679922 5.4492188 24.669922 C 4.8092188 26.499922 4.5499219 27.709922 4.9199219 30.669922 C 5.6399219 36.459922 4.5805469 39.560625 3.5605469 41.140625 C 2.9705469 42.050625 2.77 43.189844 3 44.339844 L 5.9492188 59.189453 C 6.0392187 59.659453 6.4496875 60 6.9296875 60 L 14.910156 60 C 15.240156 60 15.550469 59.840313 15.730469 59.570312 C 15.920469 59.290312 15.959844 58.950625 15.839844 58.640625 C 15.399844 57.490625 13.740156 55.509297 11.160156 55.029297 C 11.070156 54.969297 10.940859 54.849766 10.880859 54.759766 L 8.9609375 44.210938 C 9.1009375 44.100938 9.279375 43.970156 9.359375 43.910156 L 9.5097656 43.800781 C 10.099766 43.350781 10.650625 42.869141 11.140625 42.369141 L 17.189453 59.339844 C 17.339453 59.729844 17.710625 60 18.140625 60 L 25.910156 60 C 26.240156 60 26.550469 59.840547 26.730469 59.560547 C 26.920469 59.290547 26.959844 58.950625 26.839844 58.640625 C 26.019844 56.520625 24.400625 55.269531 22.140625 55.019531 C 22.040625 54.939531 21.900859 54.779766 21.880859 54.759766 L 18.919922 42.939453 C 19.039922 42.629453 19.380781 41.989531 19.550781 41.769531 C 19.710781 41.679531 20.029297 41.539688 20.279297 41.429688 C 20.719297 41.239688 21.17 41.050547 21.5 40.810547 C 22.4 40.150547 23.289141 39.460469 24.119141 38.730469 C 25.709141 38.910469 27.310156 39 28.910156 39 C 29.100156 39 29.210781 38.999766 29.300781 39.009766 C 29.460781 39.009766 29.579453 39.01 29.939453 39 C 30.039453 39 30.170312 38.980937 30.320312 38.960938 C 30.370313 38.960938 30.420703 38.949453 30.470703 38.939453 C 30.490703 38.959453 30.519063 38.98 30.539062 39 C 30.629062 39.07 30.770859 39.179297 30.880859 39.279297 C 30.820859 39.749297 30.730625 40.249766 30.640625 40.759766 C 30.410625 42.029766 30.170625 43.339687 30.390625 44.679688 C 31.340625 50.469687 32.319609 57.210625 32.599609 59.140625 C 32.669609 59.630625 33.089844 60 33.589844 60 L 36.919922 60 L 39.730469 60 L 44.150391 60 C 44.640391 60 45.089375 59.780156 45.359375 59.410156 C 45.599375 59.070156 45.669063 58.649063 45.539062 58.289062 C 44.959063 56.569063 43.749609 55.419297 42.099609 55.029297 L 40.960938 42.519531 C 41.450938 42.019531 44.459453 38.920469 45.939453 35.980469 C 50.209453 34.650469 57.82 31.580937 56 15.960938 C 56.04 15.520938 56.57 15 57 15 L 59.310547 15 C 60.090547 15.01 60.889922 15.020703 61.919922 14.470703 C 62.949922 13.930703 63.160703 12.529766 62.970703 11.759766 C 62.560703 10.069766 60.64 8 59 8 C 56.84 8 56.139219 7.7696875 55.949219 7.6796875 C 55.699219 6.9696875 54.19 6 53 6 L 52.890625 6 C 52.220625 5.99 50.820859 5.9796875 49.130859 7.1796875 C 46.120859 9.4096875 46.849766 11.809922 47.509766 13.919922 C 47.579766 14.149922 47.649453 14.379531 47.689453 14.519531 C 47.829453 15.319531 47.970703 16.070391 47.970703 16.650391 C 47.970703 18.220391 45.849531 19.759766 44.269531 19.759766 C 43.789531 19.759766 43.150547 19.610391 42.810547 18.900391 C 42.390547 18.010391 41.700938 16.050469 40.960938 13.980469 C 39.430937 9.6504687 38.189297 6.2408594 37.279297 4.8808594 C 36.699297 4.0108594 35.450078 3 33.830078 3 z M 33.830078 5 C 34.600078 5 35.299141 5.5102344 35.619141 5.9902344 C 36.459141 7.2502344 37.970078 11.530391 39.080078 14.650391 C 39.860078 16.860391 40.54 18.769766 41 19.759766 C 41.6 21.009766 42.819531 21.759766 44.269531 21.759766 C 46.829531 21.759766 49.970703 19.400391 49.970703 16.650391 C 49.970703 15.900391 49.820156 15.060156 49.660156 14.160156 C 49.650156 14.130156 49.650625 14.090547 49.640625 14.060547 C 49.570625 13.810547 49.489922 13.570078 49.419922 13.330078 C 48.789922 11.300078 48.440547 10.170781 50.310547 8.8007812 C 51.450547 7.9807812 52.329141 8 52.869141 8 L 53 8 C 53.37 8 53.879375 8.3097656 54.109375 8.5097656 C 54.539375 9.5897656 55.92 10 59 10 C 59.41 10.01 60.749297 11.110234 61.029297 12.240234 C 61.059297 12.360234 61.000234 12.659219 60.990234 12.699219 C 60.400234 13.009219 60.020078 13.01 59.330078 13 L 57 13 C 55.46 13 54 14.46 54 16 C 54 16.04 53.999766 16.079141 54.009766 16.119141 C 55.479766 28.609141 50.620234 32.109844 46.740234 33.589844 C 46.020234 33.869844 45.330703 34.079766 44.720703 34.259766 C 44.640703 34.279766 44.57 34.300078 44.5 34.330078 C 44.23 34.400078 43.980234 34.480547 43.740234 34.560547 L 43.140625 34.769531 C 42.150625 35.119531 41.050781 35.449062 39.800781 35.789062 C 39.380781 35.899062 39.009531 36.169297 38.769531 36.529297 C 38.039531 37.619297 37.209766 38.660703 36.509766 39.470703 C 35.699766 40.400703 35.100078 41.019063 35.080078 41.039062 C 34.700078 41.419063 34.510547 41.950469 34.560547 42.480469 L 34.769531 44.769531 L 34.769531 44.789062 L 35.720703 55.320312 C 35.730703 55.470312 35.760312 55.61 35.820312 55.75 C 35.810313 55.76 35.820312 55.759531 35.820312 55.769531 C 36.030313 56.349531 36.520625 56.789688 37.140625 56.929688 C 37.410625 56.979687 37.649141 57.069453 37.869141 57.189453 C 38.049141 57.279453 38.215938 57.395 38.367188 57.53125 C 38.518437 57.6675 38.654297 57.825 38.779297 58 L 35.900391 58 L 34.460938 58 C 34.080937 55.37 33.209375 49.489609 32.359375 44.349609 C 32.199375 43.359609 32.399375 42.269141 32.609375 41.119141 C 32.729375 40.449141 32.850156 39.760313 32.910156 39.070312 C 32.960156 38.390313 32.400547 37.929219 31.810547 37.449219 C 31.730547 37.389219 31.660859 37.330547 31.630859 37.310547 C 31.170859 36.820547 30.489063 36.920469 30.039062 36.980469 C 29.979063 36.990469 29.930391 37 29.900391 37 L 29.849609 37 C 29.569609 37.01 29.479609 37.009766 29.349609 37.009766 C 29.249609 36.999766 29.130156 37 28.910156 37 C 27.930156 37 26.950234 36.970625 25.990234 36.890625 C 25.130234 36.840625 24.289453 36.760859 23.439453 36.630859 C 22.844453 36.555859 22.252344 36.465625 21.660156 36.363281 C 21.067969 36.260937 20.476016 36.145 19.884766 36.015625 C 19.293516 35.88625 18.701563 35.743984 18.109375 35.587891 C 17.517187 35.431797 16.925078 35.262578 16.330078 35.080078 C 16.250078 35.040078 16.150547 35.02 16.060547 35 C 16.030547 35 16.010234 34.99 15.990234 35 C 15.950234 34.99 15.909141 34.990234 15.869141 34.990234 C 15.839141 34.990234 15.809297 34.980469 15.779297 34.980469 C 15.369297 34.910469 14.600859 34.780859 14.130859 35.380859 C 13.680859 35.940859 13.239063 36.549688 12.789062 37.179688 C 12.039062 38.219687 11.280625 39.279531 10.390625 40.269531 C 9.770625 40.959531 9.0807813 41.609219 8.3007812 42.199219 L 8.1894531 42.289062 C 7.5994531 42.709063 6.7996875 43.289687 6.9296875 44.179688 L 8.9199219 55.140625 C 9.0299219 55.920625 9.9502344 56.850469 10.740234 56.980469 C 11.600234 57.140469 12.330859 57.54 12.880859 58 L 7.75 58 L 4.9609375 43.949219 C 4.8409375 43.309219 4.9302344 42.700469 5.2402344 42.230469 C 6.4402344 40.370469 7.7003906 36.809922 6.9003906 30.419922 C 6.5803906 27.829922 6.7796094 26.909297 7.3496094 25.279297 C 7.3596094 25.249297 7.3708594 25.209688 7.3808594 25.179688 C 8.1408594 21.989687 11.550078 19.959922 12.580078 19.419922 C 14.400078 18.459922 14.769922 16.459844 15.169922 14.339844 C 15.539922 12.329844 16.009453 9.8196094 17.689453 7.0996094 C 18.469453 5.8496094 19.310781 5.1503906 20.050781 5.1503906 C 20.840781 5.1503906 21.610156 5.9409375 21.910156 6.7109375 C 22.420156 8.9209375 23.549141 12.490391 24.369141 14.900391 C 24.539141 15.400391 25.060312 16.900391 26.570312 16.900391 C 28.220312 16.900391 28.649453 15.490156 29.439453 12.910156 C 29.819453 11.640156 30.349844 9.8992188 31.089844 7.9492188 C 31.799844 6.0792188 32.800078 5 33.830078 5 z M 53 10 A 1 1 0 0 0 53 12 A 1 1 0 0 0 53 10 z M 18.279297 22.507812 C 17.726297 22.507812 17.279297 22.955813 17.279297 23.507812 C 17.279297 24.598812 17.194391 25.681563 17.025391 26.726562 C 16.937391 27.271563 17.307516 27.785047 17.853516 27.873047 C 17.907516 27.882047 17.960672 27.886719 18.013672 27.886719 C 18.495672 27.886719 18.92 27.537875 19 27.046875 C 19.185 25.895875 19.279297 24.705813 19.279297 23.507812 C 19.279297 22.955812 18.832297 22.507812 18.279297 22.507812 z M 48.732422 25.707031 C 48.477547 25.683406 48.214453 25.758047 48.001953 25.935547 C 47.576953 26.288547 47.517094 26.91875 47.871094 27.34375 L 49.150391 28.880859 C 49.348391 29.117859 49.634875 29.240234 49.921875 29.240234 C 50.146875 29.240234 50.372594 29.165766 50.558594 29.009766 C 50.983594 28.656766 51.0415 28.026563 50.6875 27.601562 L 49.408203 26.064453 C 49.232203 25.852453 48.987297 25.730656 48.732422 25.707031 z M 44.261719 27.974609 C 44.131828 27.968531 43.997438 27.987906 43.867188 28.035156 C 43.349187 28.227156 43.085344 28.802312 43.277344 29.320312 L 43.972656 31.195312 C 44.122656 31.598312 44.504156 31.847656 44.910156 31.847656 C 45.025156 31.847656 45.143813 31.826156 45.257812 31.785156 C 45.775813 31.593156 46.039656 31.019953 45.847656 30.501953 L 45.152344 28.626953 C 45.008344 28.238453 44.651391 27.992844 44.261719 27.974609 z M 17.078125 29.568359 C 16.690328 29.610453 16.347016 29.878641 16.228516 30.275391 C 16.015516 30.986391 15.745734 31.682797 15.427734 32.341797 C 15.187734 32.838797 15.396531 33.435781 15.894531 33.675781 C 16.034531 33.743781 16.182125 33.775391 16.328125 33.775391 C 16.700125 33.775391 17.056516 33.568891 17.228516 33.212891 C 17.592516 32.457891 17.901531 31.661609 18.144531 30.849609 C 18.302531 30.320609 18.002609 29.763469 17.474609 29.605469 C 17.341859 29.565219 17.207391 29.554328 17.078125 29.568359 z M 39.175781 29.767578 C 39.046234 29.765391 38.914109 29.790297 38.787109 29.841797 C 38.274109 30.048797 38.028375 30.630578 38.234375 31.142578 L 38.982422 32.998047 C 39.140422 33.387047 39.514156 33.623047 39.910156 33.623047 C 40.035156 33.623047 40.163156 33.599781 40.285156 33.550781 C 40.798156 33.343781 41.045844 32.760047 40.839844 32.248047 L 40.089844 30.394531 C 39.933094 30.010531 39.564422 29.774141 39.175781 29.767578 z M 17.1875 30.5625 C 16.9445 31.3725 16.650125 32.108391 16.328125 32.775391 L 17.1875 30.5625 z M 43.039062 36.910156 C 41.979062 38.440156 40.610469 40.039922 39.480469 41.169922 C 39.100469 41.549922 38.910938 42.079375 38.960938 42.609375 L 40.119141 55.349609 C 40.189141 56.139609 40.770781 56.789219 41.550781 56.949219 C 42.240781 57.099219 42.789688 57.45 43.179688 58 L 41.009766 58 C 40.937266 57.80875 40.856934 57.625117 40.767578 57.449219 C 40.410156 56.745625 39.920859 56.168125 39.320312 55.738281 C 39.020039 55.523359 38.690977 55.345078 38.337891 55.207031 C 38.161348 55.138008 37.977812 55.078047 37.789062 55.029297 L 37.699219 55 L 36.75 44.460938 L 36.740234 44.419922 L 36.560547 42.380859 C 36.990547 41.940859 38.900625 39.919219 40.390625 37.699219 C 41.350625 37.439219 42.229062 37.180156 43.039062 36.910156 z M 15.439453 36.949219 L 15.449219 36.949219 C 15.539219 36.959219 15.630703 36.980234 15.720703 36.990234 C 16.665703 37.280234 17.613203 37.540078 18.564453 37.767578 C 19.040078 37.881328 19.516484 37.986797 19.994141 38.083984 C 20.471797 38.181172 20.949687 38.269609 21.429688 38.349609 C 21.069688 38.639609 20.700312 38.919453 20.320312 39.189453 C 20.170313 39.299453 19.790234 39.459844 19.490234 39.589844 C 19.040234 39.789844 18.620547 39.969219 18.310547 40.199219 C 17.890547 40.509219 16.709453 42.350234 16.939453 43.240234 L 19.939453 55.25 C 20.109453 55.9 20.970312 56.92 21.820312 57 C 22.790312 57.09 23.550859 57.42 24.130859 58 L 18.839844 58 L 12.660156 40.679688 C 13.300156 39.889688 13.870156 39.099609 14.410156 38.349609 C 14.760156 37.859609 15.099453 37.389219 15.439453 36.949219 z"/></svg>